<?xml version="1.0" encoding="utf-8"?>
<svg viewBox="0 0 60 30" xmlns="http://www.w3.org/2000/svg">
  <clipPath id="s">
    <path d="M0,0 v30 h60 v-30 z"/>
  </clipPath>
  <clipPath id="t">
    <path d="M30,15 h30 v15 z v15 h-30 z h-30 v-15 z v-15 h30 z"/>
  </clipPath>
  <g clip-path="url(#s)">
    <path d="M0,0 v30 h60 v-30 z" fill="#012169"/>
    <path d="M0,0 L60,30 M60,0 L0,30" stroke="#fff" stroke-width="6"/>
    <path d="M0,0 L60,30 M60,0 L0,30" clip-path="url(#t)" stroke="#C8102E" stroke-width="4"/>
    <path d="M30,0 v30 M0,15 h60" stroke="#fff" stroke-width="10"/>
    <path d="M30,0 v30 M0,15 h60" stroke="#C8102E" stroke-width="6"/>
  </g>
  <rect fill="#fff" width="30.14" height="15.098" x="29.899" y="-0.098" style=""/>
  <rect fill="#d52b1e" y="15" width="30.14" height="15.098" x="29.899" style=""/>
  <rect fill="#0039a6" y="9.967" width="30.14" height="10.065" x="29.899" style=""/>
</svg>